# xmcd
# 
# Track frame offsets:
#     150
#     23585
#     49020
#     67795
#     91335
#     118820
#     141415
# 
# Disc length: 2294
# 
# Revision: 0
# Processed by: cddbd v1.5.2PL0 Copyright (c) Steve Scherf et al.
# Submitted via: fre:ac v1.0.17
# 
DISCID=5708f407
DTITLE=SEKAI NO OWARI - EARTH
DYEAR=2010
DGENRE=JPop
TTITLE0=幻の命
TTITLE1=虹色の戦争
TTITLE2=インスタントラジオ
TTITLE3=青い太陽
TTITLE4=死の魔法
TTITLE5=世界平和
TTITLE6=白昼の夢
EXTD=
EXTT0=
EXTT1=
EXTT2=
EXTT3=
EXTT4=
EXTT5=
EXTT6=
PLAYORDER=
